<svg width="57" height="22" viewBox="0 0 57 22" xmlns="http://www.w3.org/2000/svg">
    <g fill="#FFF" fill-rule="nonzero">
        <path d="M22.463 22h-5.961l-.424-9.625-.178-3.842a59.686 59.686 0 0 1-.218 2.113c-.082.67-.183 1.319-.301 1.948L13.59 22H8.94l-1.53-9.42a66.676 66.676 0 0 1-.37-2.816c-.018-.2-.06-.611-.123-1.23l-.137 3.896L6.275 22H.205L2.666.89h7.096L10.952 8c.1.583.188 1.217.266 1.9.077.684.148 1.427.212 2.229.118-1.34.282-2.539.492-3.596l1.45-7.642h7.04L22.462 22zM40.195 22h-5.892l-.424-2.68h-3.842L29.572 22H23.68L28.752.89h6.973L40.195 22zm-6.986-7.205-.37-2.461c-.008-.01-.027-.132-.054-.37-.018-.2-.114-.993-.287-2.378a42.919 42.919 0 0 1-.068-.636c-.028-.269-.064-.608-.11-1.018l-.177-1.996c-.019.191-.044.405-.076.642l-.102.78c-.064.565-.11.956-.137 1.175-.027.219-.045.351-.055.397l-.396 2.556-.574 3.309h2.406zM56.738 22h-6.33l-1.053-3.008c-.337-.92-.61-1.805-.82-2.652-.2.838-.501 1.8-.902 2.885L46.58 22h-6.207L45.5 11.049 40.66.89h6.344l.943 2.857c.1.264.199.574.294.93.096.355.194.756.294 1.203.228-.912.42-1.613.574-2.106l.875-2.884h6.385l-4.812 10.158L56.738 22z"/>
    </g>
</svg>
